<svg width="500" height="500" viewBox="0 0 500 500" fill="none" xmlns="http://www.w3.org/2000/svg">
<g clip-path="url(#clip0_1_3)">
<rect width="500" height="500" rx="250" fill="white"/>
<rect width="500" height="100" fill="#5BCEFA"/>
<rect y="400" width="500" height="100" fill="#5BCEFA"/>
<rect y="300" width="500" height="100" fill="#F5A9B8"/>
<rect x="10" y="100" width="500" height="100" fill="#F5A9B8"/>
<path d="M251.703 80.6336C222.016 80.6336 195.043 84.2028 175.075 90.0191V139.703C195.043 145.519 222.016 149.088 251.703 149.088C285.68 149.088 316.099 144.413 336.532 137.044V92.6783C316.099 85.3091 285.68 80.6336 251.703 80.6336Z" fill="#A52B00"/>
<path d="M367.134 121.002L363.654 113.793C363.672 113.52 363.686 113.246 363.686 112.971C363.686 104.798 355.188 97.2661 340.89 91.2358V134.706C347.561 131.892 352.974 128.751 356.844 125.37C355.705 129.951 351.809 139.218 348.703 145.735C343.597 155.056 341.749 163.17 341.986 163.572C342.137 163.825 343.878 161.138 346.447 156.784C352.424 148.268 363.75 132.008 366.014 127.867C368.578 123.172 367.134 121.002 367.134 121.002Z" fill="#A52B00"/>
<path d="M141.934 113.447C141.934 115.021 142.251 116.572 142.862 118.092L140.778 121.802C140.778 121.802 139.108 123.968 142.048 128.537C144.641 132.567 157.63 148.339 164.486 156.599C167.431 160.833 169.427 163.441 169.602 163.189C169.877 162.789 167.771 154.839 161.923 145.769C159.194 140.898 155.935 134.444 153.979 129.677C159.44 133.133 166.586 136.268 175.075 138.967V87.9282C154.618 94.4289 141.934 103.461 141.934 113.447Z" fill="#A52B00"/>
<path d="M247.961 5.01336L241.16 16.3732C240.055 16.4698 238.95 16.5665 237.845 16.6632L229.006 6.85734C228.173 5.81666 226.835 5.37689 225.562 5.67389C224.288 5.97088 223.264 6.98852 222.808 8.142L218.346 20.7819C217.257 21.0628 216.168 21.3437 215.279 21.7926L204.744 13.8056C203.758 13.1494 202.252 12.91 201.18 13.375C199.939 14.0404 199.098 15.0419 198.843 16.3635L196.671 29.731C195.783 30.1799 194.91 30.8131 193.837 31.2782L182.222 25.7984C181.052 25.1583 179.579 25.2872 178.538 26.1207C177.481 26.7699 176.857 28.1237 176.786 29.4292L177.225 42.9395C176.537 43.5565 175.68 44.3738 174.808 45.007L162.297 42.0183C160.959 41.5786 159.702 42.0598 158.678 43.0774C157.821 43.8947 157.397 45.4166 157.694 46.6898L160.696 59.7903C160.024 60.5915 159.352 61.3927 158.696 62.3781L145.657 61.8485C144.352 61.7771 143.111 62.4424 142.471 63.612C141.831 64.7816 141.591 66.2874 142.257 67.5284L147.589 79.6826C146.933 80.668 146.461 81.6373 145.989 82.6066L133.376 84.8236C131.903 84.9526 130.878 85.9702 130.422 87.1237C129.983 88.4613 130.112 89.9349 130.761 90.9916L138.391 101.831C138.223 102.032 138.239 102.216 138.255 102.4L116.852 125.06C116.852 125.06 113.73 127.56 118.346 133.652C122.513 138.855 144.019 159.803 155.381 170.873C160.133 176.396 163.403 179.822 163.755 179.606C164.259 179.005 161.515 168.851 152.131 157.051C144.885 146.364 135.466 129.927 137.532 128.076C137.532 128.076 140.037 124.887 145.217 122.578C145.017 122.41 145.017 122.41 145.217 122.578C145.217 122.578 251.782 171.719 350.558 123.358C361.881 121.254 368.724 127.337 368.724 127.337C371.079 128.801 364.945 145.671 359.986 156.87C353.113 169.535 352.125 179.458 352.71 179.778C353.095 179.93 355.551 176.189 359.104 170.124C367.883 158.035 384.232 134.889 387.265 129.241C390.785 122.809 387.276 120.888 387.276 120.888L364.467 104.138C364.218 103.418 363.97 102.697 363.889 101.776L371.291 90.9206C372.132 89.9191 372.187 88.4295 371.706 87.1724C371.225 85.9153 370.223 85.0749 368.902 84.8193L356.087 82.5997C355.638 81.711 355.173 80.6381 354.724 79.7494L359.955 67.4134C360.595 66.2438 360.466 64.7702 359.616 63.5454C358.967 62.4886 357.798 61.8485 356.508 61.9613L343.55 62.3526C342.917 61.48 342.1 60.6235 341.467 59.7509L344.407 46.6873C344.663 45.3657 344.35 43.9083 343.532 43.0518C342.515 42.0273 341.177 41.5875 339.904 41.8845L327.372 45.0225C326.571 44.3502 325.769 43.6779 324.952 42.8214L325.265 29.4308C325.337 28.1254 324.671 26.8844 323.67 26.044C322.484 25.2198 321.179 25.1484 319.938 25.8137L308.352 31.2817C307.383 30.8097 306.398 30.1536 305.428 29.6816L303.347 16.5005C303.218 15.027 302.2 14.0024 301.047 13.5465C299.877 12.9064 298.404 13.0354 297.363 13.8688L286.908 21.6507C285.955 21.3629 285.002 21.0751 283.864 20.8034L279.421 8.20019C278.94 6.94309 277.922 5.91853 276.601 5.66295C275.279 5.40737 274.022 5.88855 272.997 6.90619L264.209 16.7694C263.272 16.6658 262.135 16.3941 261.013 16.3066L254.272 5.01804C253.607 3.77705 252.437 3.13697 251.132 3.06558C249.826 2.99419 248.601 3.84376 247.961 5.01336Z" fill="url(#paint0_linear_1_3)"/>
<path d="M215.704 152.501C215.296 152.153 215.083 151.947 215.083 151.947L249.986 149.088C221.515 111.528 198.706 141.449 196.278 144.794V152.501H215.704Z" fill="black"/>
<path d="M288.378 152.097C288.785 151.749 288.999 151.542 288.999 151.542L255.456 149.088C283.941 109.986 305.377 141.044 307.804 144.389V152.097H288.378Z" fill="black"/>
<path d="M341.986 114.807C341.986 114.807 338.191 129.986 314.44 145.952L307.831 147.522C307.831 147.522 286.305 108.263 255.814 152.495C255.814 152.495 265.302 146.998 290.754 153.738C290.754 153.738 279.042 171.666 255.487 171.077C255.487 171.077 278.061 198.231 312.477 159.038C312.477 159.038 348.857 144.97 351.801 114.807L341.986 114.807Z" fill="url(#paint1_linear_1_3)"/>
<path d="M271.304 95.3466C271.304 95.3466 281.952 83.6873 292.601 95.3466C292.601 95.3466 300.968 110.894 292.601 118.666C292.601 118.666 278.91 129.549 271.304 118.666C271.304 118.666 262.176 110.115 271.304 95.3466Z" fill="black"/>
<path d="M283.632 99.6719C283.632 104.212 280.955 107.893 277.655 107.893C274.355 107.893 271.679 104.212 271.679 99.6719C271.679 95.1318 274.355 91.4508 277.655 91.4508C280.955 91.4508 283.632 95.1318 283.632 99.6719Z" fill="white"/>
<path d="M223.777 92.1629C223.777 92.1629 242.043 84.0755 247.029 102.127C247.029 102.127 252.251 123.167 232.029 124.355C232.029 124.355 206.242 119.388 223.777 92.1629Z" fill="black"/>
<path d="M232.951 99.9699C232.951 104.651 230.192 108.449 226.787 108.449C223.384 108.449 220.624 104.651 220.624 99.9699C220.624 95.2871 223.384 91.4909 226.787 91.4909C230.192 91.4909 232.951 95.2871 232.951 99.9699Z" fill="white"/>
<path d="M196.359 161.49C229.72 204.274 245.523 169.918 245.523 169.918C226.794 167.811 213.508 155.344 213.508 155.344C235.983 152.476 248.976 152.242 248.976 152.242C218.892 112.56 194.486 148.497 194.486 148.497C188.399 146.272 182.137 137.786 177.513 129.943L158.843 124.441C180.323 160.963 196.359 161.49 196.359 161.49Z" fill="url(#paint2_linear_1_3)"/>
<g clip-path="url(#clip1_1_3)">
<rect width="500" height="500" rx="250" fill="url(#paint3_linear_1_3)" fill-opacity="0.9"/>
<rect x="26.5" y="398.5" width="447" height="114" rx="49.5" fill="#8B7D5A" stroke="#D5B37F"/>
<rect width="150" height="125" transform="matrix(-1 0 0.316808 0.94849 325 280)" fill="#C9A267"/>
<rect width="150" height="125" transform="matrix(1 0 -0.316808 0.94849 174.601 280)" fill="#D5B37F"/>
</g>
</g>
<defs>
<linearGradient id="paint0_linear_1_3" x1="257.788" y1="188.083" x2="241.674" y2="3.89307" gradientUnits="userSpaceOnUse">
<stop stop-color="#F74C00"/>
<stop offset="0.33" stop-color="#F74C00"/>
<stop offset="1" stop-color="#F49600"/>
</linearGradient>
<linearGradient id="paint1_linear_1_3" x1="303.644" y1="180.237" x2="303.644" y2="114.807" gradientUnits="userSpaceOnUse">
<stop stop-color="#CC3A00"/>
<stop offset="0.15" stop-color="#CC3A00"/>
<stop offset="0.74" stop-color="#F74C00"/>
<stop offset="1" stop-color="#F74C00"/>
</linearGradient>
<linearGradient id="paint2_linear_1_3" x1="203.909" y1="182.969" x2="203.909" y2="124.441" gradientUnits="userSpaceOnUse">
<stop stop-color="#CC3A00"/>
<stop offset="0.15" stop-color="#CC3A00"/>
<stop offset="0.74" stop-color="#F74C00"/>
<stop offset="1" stop-color="#F74C00"/>
</linearGradient>
<linearGradient id="paint3_linear_1_3" x1="0" y1="0" x2="500" y2="500" gradientUnits="userSpaceOnUse">
<stop stop-color="#12082F"/>
<stop offset="1" stop-color="#1E2562"/>
</linearGradient>
<clipPath id="clip0_1_3">
<rect width="500" height="500" rx="250" fill="white"/>
</clipPath>
<clipPath id="clip1_1_3">
<rect width="500" height="500" rx="250" fill="white"/>
</clipPath>
</defs>
</svg>
